<svg width="34" height="34" viewBox="0 0 34 34" fill="none" xmlns="http://www.w3.org/2000/svg">
<path d="M16.6667 0C7.5 0 0 7.48333 0 16.7C0 25.0333 6.1 31.95 14.0667 33.2V21.5333H9.83333V16.7H14.0667V13.0167C14.0667 8.83333 16.55 6.53333 20.3667 6.53333C22.1833 6.53333 24.0833 6.85 24.0833 6.85V10.9667H21.9833C19.9167 10.9667 19.2667 12.25 19.2667 13.5667V16.7H23.9L23.15 21.5333H19.2667V33.2C23.1941 32.5797 26.7703 30.5759 29.3499 27.5501C31.9294 24.5243 33.3423 20.6761 33.3333 16.7C33.3333 7.48333 25.8333 0 16.6667 0Z" fill="#B7B7B7"/>
</svg>
