<svg width="56" height="56" viewBox="0 0 56 56" fill="none" xmlns="http://www.w3.org/2000/svg">
<path d="M28 0C20.4015 0 19.446 0.035 16.4605 0.168C13.475 0.308 11.4415 0.777 9.66 1.47C7.79133 2.17287 6.09872 3.27539 4.7005 4.7005C3.27627 6.09944 2.17388 7.79184 1.47 9.66C0.777 11.438 0.3045 13.475 0.168 16.45C0.035 19.4425 0 20.3945 0 28.0035C0 35.6055 0.035 36.5575 0.168 39.543C0.308 42.525 0.777 44.5585 1.47 46.34C2.1875 48.181 3.143 49.742 4.7005 51.2995C6.2545 52.857 7.8155 53.816 9.6565 54.53C11.4415 55.223 13.4715 55.6955 16.4535 55.832C19.4425 55.965 20.3945 56 28 56C35.6055 56 36.554 55.965 39.543 55.832C42.5215 55.692 44.562 55.223 46.3435 54.53C48.211 53.8268 49.9024 52.7243 51.2995 51.2995C52.857 49.742 53.8125 48.181 54.53 46.34C55.2195 44.5585 55.692 42.525 55.832 39.543C55.965 36.5575 56 35.6055 56 28C56 20.3945 55.965 19.4425 55.832 16.4535C55.692 13.475 55.2195 11.438 54.53 9.66C53.8262 7.79179 52.7238 6.09937 51.2995 4.7005C49.9017 3.27486 48.209 2.17226 46.34 1.47C44.555 0.777 42.518 0.3045 39.5395 0.168C36.5505 0.035 35.602 0 27.993 0H28.0035H28ZM25.4905 5.047H28.0035C35.4795 5.047 36.365 5.0715 39.3155 5.208C42.0455 5.3305 43.5295 5.789 44.5165 6.1705C45.822 6.678 46.7565 7.287 47.7365 8.267C48.7165 9.247 49.322 10.178 49.8295 11.487C50.2145 12.4705 50.6695 13.9545 50.792 16.6845C50.9285 19.635 50.9565 20.5205 50.9565 27.993C50.9565 35.4655 50.9285 36.3545 50.792 39.305C50.6695 42.035 50.211 43.5155 49.8295 44.5025C49.3806 45.7183 48.6641 46.8175 47.733 47.719C46.753 48.699 45.822 49.3045 44.513 49.812C43.533 50.197 42.049 50.652 39.3155 50.778C36.365 50.911 35.4795 50.9425 28.0035 50.9425C20.5275 50.9425 19.6385 50.911 16.688 50.778C13.958 50.652 12.4775 50.197 11.4905 49.812C10.2742 49.3637 9.17394 48.6485 8.2705 47.719C7.33863 46.8161 6.62103 45.7158 6.1705 44.499C5.789 43.5155 5.3305 42.0315 5.208 39.3015C5.075 36.351 5.047 35.4655 5.047 27.986C5.047 20.51 5.075 19.628 5.208 16.6775C5.334 13.9475 5.789 12.4635 6.174 11.4765C6.6815 10.171 7.2905 9.2365 8.2705 8.2565C9.2505 7.2765 10.1815 6.671 11.4905 6.1635C12.4775 5.7785 13.958 5.3235 16.688 5.1975C19.271 5.0785 20.272 5.0435 25.4905 5.04V5.047ZM42.9485 9.695C42.5073 9.695 42.0703 9.78191 41.6627 9.95077C41.255 10.1196 40.8846 10.3671 40.5726 10.6791C40.2606 10.9911 40.0131 11.3615 39.8443 11.7692C39.6754 12.1768 39.5885 12.6138 39.5885 13.055C39.5885 13.4962 39.6754 13.9332 39.8443 14.3408C40.0131 14.7485 40.2606 15.1189 40.5726 15.4309C40.8846 15.7429 41.255 15.9904 41.6627 16.1592C42.0703 16.3281 42.5073 16.415 42.9485 16.415C43.8396 16.415 44.6943 16.061 45.3244 15.4309C45.9545 14.8008 46.3085 13.9461 46.3085 13.055C46.3085 12.1639 45.9545 11.3092 45.3244 10.6791C44.6943 10.049 43.8396 9.695 42.9485 9.695ZM28.0035 13.622C26.0962 13.5922 24.2021 13.9422 22.4314 14.6515C20.6607 15.3608 19.0488 16.4152 17.6895 17.7535C16.3303 19.0917 15.2508 20.687 14.5139 22.4464C13.7771 24.2058 13.3977 26.0943 13.3977 28.0017C13.3977 29.9092 13.7771 31.7977 14.5139 33.5571C15.2508 35.3165 16.3303 36.9118 17.6895 38.25C19.0488 39.5883 20.6607 40.6427 22.4314 41.352C24.2021 42.0613 26.0962 42.4113 28.0035 42.3815C31.7784 42.3226 35.3787 40.7817 38.0274 38.0914C40.6761 35.4011 42.1607 31.7771 42.1607 28.0017C42.1607 24.2264 40.6761 20.6024 38.0274 17.9121C35.3787 15.2218 31.7784 13.6809 28.0035 13.622ZM28.0035 18.6655C30.4792 18.6655 32.8534 19.649 34.604 21.3995C36.3545 23.1501 37.338 25.5243 37.338 28C37.338 30.4757 36.3545 32.8499 34.604 34.6005C32.8534 36.351 30.4792 37.3345 28.0035 37.3345C25.5278 37.3345 23.1536 36.351 21.403 34.6005C19.6525 32.8499 18.669 30.4757 18.669 28C18.669 25.5243 19.6525 23.1501 21.403 21.3995C23.1536 19.649 25.5278 18.6655 28.0035 18.6655Z" fill="#FFD700"/>
</svg>
