<svg width="62" height="74" viewBox="0 0 62 74" fill="none" xmlns="http://www.w3.org/2000/svg">
<path d="M57.3504 11.6385C57.0697 11.399 56.7224 11.2466 56.3526 11.2004C55.9829 11.1543 55.6075 11.2166 55.2741 11.3794L42.8375 17.4338C42.8329 17.4375 42.8272 17.4396 42.8212 17.4396C42.8153 17.4396 42.8095 17.4375 42.8049 17.4338L32.6285 0.893242C32.4607 0.620756 32.2235 0.395297 31.94 0.238777C31.6566 0.0822572 31.3365 0 31.0108 0C30.6852 0 30.365 0.0822572 30.0816 0.238777C29.7981 0.395297 29.5609 0.620756 29.3931 0.893242L19.1934 17.4225C19.1886 17.4268 19.1824 17.4292 19.1759 17.4292C19.1694 17.4292 19.1632 17.4268 19.1585 17.4225L6.72888 11.3817C6.39546 11.2188 6.02008 11.1562 5.65018 11.2016C5.28029 11.247 4.93248 11.3984 4.65073 11.6368C4.36898 11.8752 4.16593 12.1898 4.06725 12.5408C3.96857 12.8918 3.97868 13.2635 4.09632 13.6089L12.7086 39.3721C12.7518 39.5018 12.8244 39.6204 12.9209 39.719C13.0174 39.8177 13.1355 39.8938 13.2663 39.9418C13.397 39.9898 13.5372 40.0085 13.6764 39.9964C13.8156 39.9844 13.9502 39.9419 14.0702 39.8721C14.1284 39.8357 20.2525 36.363 30.9992 36.363C41.7459 36.363 47.8676 39.8357 47.9281 39.8698C48.048 39.9396 48.1825 39.9822 48.3215 39.9944C48.4606 40.0067 48.6007 39.9882 48.7314 39.9404C48.8622 39.8926 48.9802 39.8167 49.0769 39.7183C49.1735 39.62 49.2463 39.5016 49.2898 39.3721L57.902 13.6089C58.0209 13.2641 58.0319 12.8926 57.9336 12.5417C57.8354 12.1907 57.6323 11.8763 57.3504 11.6385ZM47.8583 37.7926C46.6628 37.2488 45.431 36.7849 44.1713 36.4039C41.413 35.5562 36.8881 34.5449 30.9992 34.5449C25.1102 34.5449 20.5853 35.5562 17.8247 36.4039C16.5653 36.7857 15.3335 37.2496 14.1378 37.7926L5.86067 13.0271C5.86337 13.0215 5.86766 13.0169 5.87304 13.0136C5.87841 13.0104 5.88462 13.0088 5.89093 13.0089L18.3205 19.0588C18.7456 19.2643 19.2342 19.3067 19.6898 19.1775C20.1453 19.0483 20.5346 18.757 20.7808 18.3611L30.9712 1.82959C30.9731 1.82575 30.9761 1.8225 30.9798 1.82024C30.9835 1.81797 30.9878 1.81677 30.9922 1.81677C30.9966 1.81677 31.0008 1.81797 31.0045 1.82024C31.0082 1.8225 31.0112 1.82575 31.0131 1.82959L41.2035 18.3611C41.4497 18.7564 41.8385 19.0475 42.2933 19.177C42.7482 19.3066 43.2363 19.2652 43.6615 19.0611L56.1144 13.0021C56.1217 13.0047 56.1277 13.0099 56.1311 13.0167C56.1346 13.0234 56.1353 13.0312 56.133 13.0385L47.8583 37.7926ZM41.2268 29.1154C41.1886 29.3253 41.0761 29.5155 40.9088 29.6525C40.7416 29.7896 40.5304 29.865 40.312 29.8654C40.2574 29.8656 40.2029 29.861 40.1491 29.8518C34.0934 28.8367 27.9049 28.8367 21.8492 29.8518C21.7288 29.8725 21.6053 29.8699 21.4859 29.8441C21.3666 29.8182 21.2535 29.7697 21.1534 29.7012C20.951 29.5629 20.8133 29.3518 20.7704 29.1143C20.7275 28.8768 20.7829 28.6324 20.9246 28.4349C21.0662 28.2373 21.2824 28.1028 21.5257 28.0609C27.7954 27.0094 34.2029 27.0094 40.4727 28.0609C40.5931 28.0818 40.7082 28.1256 40.8113 28.1899C40.9144 28.2542 41.0035 28.3377 41.0735 28.4356C41.1436 28.5335 41.1932 28.644 41.2195 28.7606C41.2458 28.8773 41.2483 28.9979 41.2268 29.1154Z" fill="#FFD700"/>
<path d="M30.5008 47.8167L37.6279 40.1683C38.8346 38.8333 40.3314 38 42.1648 38C43.2088 37.9999 44.2337 38.28 45.1326 38.811C46.0314 39.342 46.7713 40.1045 47.275 41.0188C47.7787 41.9332 48.0278 42.9661 47.9963 44.0095C47.9647 45.053 47.6537 46.0689 47.0957 46.9512C46.5377 47.8335 45.7532 48.5499 44.8239 49.0257C43.8946 49.5014 42.8547 49.7191 41.8126 49.656C40.7705 49.5929 39.7644 49.2513 38.8994 48.6668C38.0343 48.0824 37.3419 47.2765 36.8945 46.3333M30.5008 47.8167L14.4316 65.0667C13.4895 66.0776 12.9766 67.4147 13.0008 68.7963C13.0251 70.1778 13.5846 71.4961 14.5616 72.4733L15.0883 73L15.505 73L15.6817 72.7783C21.5156 65.4847 28.423 59.1188 36.1678 53.8983L46.5684 65.0667C47.5105 66.0776 48.0234 67.4147 47.9992 68.7963C47.9749 70.1778 47.4154 71.4961 46.4384 72.4733L45.9117 73L45.7817 73M30.5008 47.8167L23.3738 40.1683C22.167 38.8333 20.6703 38 18.8369 38C17.7929 37.9999 16.768 38.28 15.8691 38.811C14.9703 39.342 14.2304 40.1045 13.7267 41.0189C13.223 41.9332 12.9739 42.9661 13.0054 44.0095C13.0369 45.053 13.3479 46.0689 13.9059 46.9512C14.4639 47.8335 15.2485 48.5499 16.1778 49.0257C17.1071 49.5014 18.147 49.7191 19.1891 49.656C20.2312 49.5929 21.2372 49.2513 22.1023 48.6668C22.9674 48.0824 23.6597 47.2765 24.1071 46.3333M45.915 73L45.4983 73L45.32 72.7783C40.9544 67.3197 35.9828 62.3747 30.5008 58.0383" stroke="#FFD700" stroke-width="1.04167"/>
<path d="M6.67907 54.6062C6.85296 53.6463 6.3721 52.7872 5.35769 52.8685C3.9817 52.979 3.02422 55.8284 5.95154 56.7766C8.35137 57.5541 10.0986 55.7544 12.8636 52.9774C19.0414 46.7726 26.5012 46.1708 31.0504 52.4345C32.9254 49.0016 40.3165 43.2792 51.602 55.1492C55.7477 59.5096 59.452 55.4089 57.4226 53.1585C56.4994 52.1347 54.6949 53.5644 55.6036 54.6062H55.4216C51.186 50.8689 60.0335 47.3766 61.7867 53.7014C63.5982 63.2214 53.5047 64.769 45.4188 61.3009C29.7908 53.5193 29.624 55.6098 14.4993 62.0249C9.85754 63.918 4.17279 62.8363 1.87806 60.6473C-0.847395 58.0476 -0.678833 51.8696 2.85929 50.6248C6.4703 49.1836 9.52526 52.269 6.67907 54.6062Z" fill="#FFD700"/>
</svg>
