<svg width="26" height="23" viewBox="0 0 26 23" fill="none" xmlns="http://www.w3.org/2000/svg">
<path d="M0 20.4444V2.55556C0 1.87778 0.304364 1.22776 0.846136 0.748505C1.38791 0.269245 2.12271 0 2.88889 0H23.1111C23.8773 0 24.6121 0.269245 25.1539 0.748505C25.6956 1.22776 26 1.87778 26 2.55556V20.4444C26 21.1222 25.6956 21.7722 25.1539 22.2515C24.6121 22.7308 23.8773 23 23.1111 23H2.88889C2.12271 23 1.38791 22.7308 0.846136 22.2515C0.304364 21.7722 0 21.1222 0 20.4444ZM20.2222 11.5L13 5.11111V8.94444H7.22222V14.0556H13V17.8889L20.2222 11.5Z" fill="#FFD700"/>
</svg>
