<svg width="34" height="34" viewBox="0 0 34 34" fill="none" xmlns="http://www.w3.org/2000/svg">
<path d="M23.9333 20C24.0667 18.9 24.1667 17.8 24.1667 16.6667C24.1667 15.5333 24.0667 14.4333 23.9333 13.3333H29.5667C29.8333 14.4 30 15.5167 30 16.6667C30 17.8167 29.8333 18.9333 29.5667 20M20.9833 29.2667C21.9833 27.4167 22.75 25.4167 23.2833 23.3333H28.2C26.5853 26.1138 24.0235 28.22 20.9833 29.2667ZM20.5667 20H12.7667C12.6 18.9 12.5 17.8 12.5 16.6667C12.5 15.5333 12.6 14.4167 12.7667 13.3333H20.5667C20.7167 14.4167 20.8333 15.5333 20.8333 16.6667C20.8333 17.8 20.7167 18.9 20.5667 20ZM16.6667 29.9333C15.2833 27.9333 14.1667 25.7167 13.4833 23.3333H19.85C19.1667 25.7167 18.05 27.9333 16.6667 29.9333ZM10 10H5.13333C6.73143 7.21202 9.29133 5.10248 12.3333 4.06667C11.3333 5.91667 10.5833 7.91667 10 10ZM5.13333 23.3333H10C10.5833 25.4167 11.3333 27.4167 12.3333 29.2667C9.29771 28.2194 6.74141 26.1129 5.13333 23.3333ZM3.76667 20C3.5 18.9333 3.33333 17.8167 3.33333 16.6667C3.33333 15.5167 3.5 14.4 3.76667 13.3333H9.4C9.26667 14.4333 9.16667 15.5333 9.16667 16.6667C9.16667 17.8 9.26667 18.9 9.4 20M16.6667 3.38333C18.05 5.38333 19.1667 7.61667 19.85 10H13.4833C14.1667 7.61667 15.2833 5.38333 16.6667 3.38333ZM28.2 10H23.2833C22.7617 7.93576 21.9893 5.94316 20.9833 4.06667C24.05 5.11667 26.6 7.23333 28.2 10ZM16.6667 0C7.45 0 0 7.5 0 16.6667C0 21.0869 1.75595 25.3262 4.88155 28.4518C6.4292 29.9994 8.26652 31.2271 10.2886 32.0647C12.3107 32.9022 14.478 33.3333 16.6667 33.3333C21.0869 33.3333 25.3262 31.5774 28.4518 28.4518C31.5774 25.3262 33.3333 21.0869 33.3333 16.6667C33.3333 14.478 32.9022 12.3107 32.0647 10.2886C31.2271 8.26652 29.9994 6.4292 28.4518 4.88155C26.9041 3.33391 25.0668 2.10625 23.0447 1.26867C21.0226 0.431096 18.8554 0 16.6667 0Z" fill="#B7B7B7"/>
</svg>
