<svg width="67" height="64" viewBox="0 0 67 64" fill="none" xmlns="http://www.w3.org/2000/svg">
<path d="M16.9869 62.6572C17.0819 62.6067 17.1755 62.5537 17.2677 62.4982C36.3131 51.0724 53.6704 37.0848 65.5773 20.3171C66.6121 18.8597 66.7144 17.4013 66.1132 15.6104C65.5119 13.8193 64.1015 11.795 62.1416 9.82485C58.4066 6.06966 52.7337 2.54682 47.5175 0.444328L45.4378 2.26034L59.6588 18.5435L57.5258 20.4013L43.3064 4.12225L40.8212 6.2948L55.0383 22.5698L52.907 24.4318L38.6904 8.15712L36.4698 10.0945L50.6824 26.3717L48.5467 28.2359L34.3362 11.9633L31.9386 14.0561L46.1532 30.3267L44.018 32.191L29.8073 15.9181L27.3219 18.091L41.5304 34.3595L39.3995 36.2216L25.1909 19.9531L22.7037 22.1216L36.912 38.3902L34.7812 40.2523L20.57 23.9901L18.26 26.0034L32.4665 42.2679L30.3355 44.1298L16.131 27.8698L13.4748 30.1894L27.6751 46.4519L25.5396 48.316L11.3395 32.0538L8.85638 34.2203L23.0565 50.4824L20.921 52.3462L6.72308 36.0885L4.32551 38.1815L18.5213 54.4352L16.3899 56.2973L2.19403 40.0438L0.103496 41.8702C1.48599 47.3323 4.26707 53.5435 7.51315 57.8089C9.21602 60.0469 11.0467 61.7267 12.7129 62.5391C14.1713 63.2496 15.4036 63.3833 16.706 62.7949C16.7989 62.7527 16.8931 62.7066 16.9867 62.6573L16.9869 62.6572Z" fill="#FFD700"/>
</svg>
