<svg width="55" height="46" viewBox="0 0 55 46" fill="none" xmlns="http://www.w3.org/2000/svg">
<path d="M39.6 11H4.4C1.98 11 0.022 12.9687 0.022 15.375L0 41.625C0 44.0313 1.98 46 4.4 46H39.6C42.02 46 44 44.0313 44 41.625V15.375C44 12.9687 42.02 11 39.6 11ZM39.6 19.75L22 30.6875L4.4 19.75V15.375L22 26.3125L39.6 15.375V19.75Z" fill="#55D9B9"/>
<path d="M44.375 20.75C49.5527 20.75 53.75 16.5527 53.75 11.375C53.75 6.19733 49.5527 2 44.375 2C39.1973 2 35 6.19733 35 11.375C35 16.5527 39.1973 20.75 44.375 20.75Z" stroke="#3E8E46" stroke-width="2.08333" stroke-linecap="round" stroke-linejoin="round"/>
<path d="M40.2083 11.375L43.3333 14.5L48.5416 9.29169" stroke="#3E8E46" stroke-width="2.08333" stroke-linecap="round" stroke-linejoin="round"/>
</svg>
