<svg width="56" height="57" viewBox="0 0 56 57" fill="none" xmlns="http://www.w3.org/2000/svg">
<path d="M28.6364 25.3912H55.7868C55.9268 26.6131 56 27.8668 56 29.1491C56 37.8265 52.8818 45.1328 47.4791 50.0968C42.7541 54.4482 36.2855 57 28.5727 57C24.8203 57.0017 21.1043 56.2657 17.6372 54.8341C14.17 53.4026 11.0197 51.3035 8.36616 48.6569C5.71264 46.0103 3.60799 42.868 2.17248 39.4097C0.736971 35.9513 -0.00125169 32.2447 2.83737e-06 28.5016C-0.00166986 24.7582 0.736244 21.0513 2.17157 17.5925C3.60689 14.1338 5.71147 10.9912 8.36503 8.3442C11.0186 5.69725 14.1691 3.59791 17.6364 2.16616C21.1038 0.734411 24.82 -0.0016657 28.5727 2.83031e-06C36.2727 2.83031e-06 42.7414 2.82477 47.6891 7.42375L43.0373 12.0608C39.3527 8.50922 34.3732 6.34779 28.6364 6.34779C22.7293 6.3478 17.0641 8.68854 12.8872 12.8551C8.71022 17.0216 6.36364 22.6727 6.36364 28.5651C6.36364 34.4575 8.71022 40.1085 12.8872 44.275C17.0641 48.4416 22.7293 50.7823 28.6364 50.7823C39.8586 50.7823 48.1855 42.5048 49.5632 31.739H28.6364V25.3912Z" fill="#FFD700"/>
</svg>
