<svg width="20" height="26" viewBox="0 0 20 26" fill="none" xmlns="http://www.w3.org/2000/svg">
<path d="M10 12.35C9.0528 12.35 8.14439 12.0076 7.47462 11.3981C6.80485 10.7886 6.42857 9.96195 6.42857 9.1C6.42857 8.23805 6.80485 7.4114 7.47462 6.8019C8.14439 6.19241 9.0528 5.85 10 5.85C10.9472 5.85 11.8556 6.19241 12.5254 6.8019C13.1952 7.4114 13.5714 8.23805 13.5714 9.1C13.5714 9.5268 13.4791 9.94941 13.2996 10.3437C13.1201 10.738 12.857 11.0963 12.5254 11.3981C12.1937 11.6999 11.8 11.9393 11.3667 12.1026C10.9334 12.2659 10.469 12.35 10 12.35ZM10 0C7.34784 0 4.8043 0.958747 2.92893 2.66533C1.05357 4.37191 0 6.68653 0 9.1C0 15.925 10 26 10 26C10 26 20 15.925 20 9.1C20 6.68653 18.9464 4.37191 17.0711 2.66533C15.1957 0.958747 12.6522 0 10 0Z" fill="#FFD700"/>
</svg>
