<svg width="10" height="19" viewBox="0 0 10 19" fill="none" xmlns="http://www.w3.org/2000/svg">
<path d="M8.31867 0.214985L0.221799 8.52124C0.0795894 8.66713 0 8.86281 0 9.06655C0 9.27029 0.0795894 9.46596 0.221799 9.61186L8.31867 17.9212C8.38492 17.9893 8.46412 18.0433 8.55161 18.0803C8.63909 18.1172 8.73309 18.1362 8.82805 18.1362C8.92301 18.1362 9.017 18.1172 9.10449 18.0803C9.19198 18.0433 9.27118 17.9893 9.33742 17.9212C9.47371 17.7817 9.55001 17.5944 9.55001 17.3994C9.55001 17.2043 9.47371 17.017 9.33742 16.8775L1.72336 9.06655L9.33742 1.25717C9.47324 1.11772 9.54924 0.930743 9.54924 0.736078C9.54924 0.541413 9.47324 0.354441 9.33742 0.214985C9.27118 0.146948 9.19198 0.0928716 9.10449 0.0559475C9.017 0.0190234 8.92301 0 8.82805 0C8.73309 0 8.63909 0.0190234 8.55161 0.0559475C8.46412 0.0928716 8.38492 0.146948 8.31867 0.214985Z" fill="#000"/>
</svg>
